<svg width="22" height="28" viewBox="0 0 22 28" fill="none" xmlns="http://www.w3.org/2000/svg">
<path d="M18.5834 8.16665H19.75C20.715 8.16665 21.5 7.38166 21.5 6.41665V1.75C21.5 0.784984 20.715 0 19.75 0H18.5834C17.6183 0 16.8334 0.784984 16.8334 1.75V2.96718L12.5854 3.35327C12.3077 2.75308 11.7037 2.33335 11 2.33335C10.2963 2.33335 9.69237 2.75302 9.41461 3.35327L5.16665 2.96718V1.75C5.16665 0.784984 4.38166 0 3.41665 0H2.25C1.28498 0 0.5 0.784984 0.5 1.75V6.41665C0.5 7.38166 1.28498 8.16665 2.25 8.16665H3.41665C4.38166 8.16665 5.16665 7.38166 5.16665 6.41665V5.19952L9.41461 4.81343C9.51622 5.03305 9.66256 5.22545 9.84112 5.38459L10.2662 11.697C10.0187 11.7645 9.83324 11.9809 9.83324 12.25V15.75C9.83324 16.0091 10.0046 16.2212 10.2381 16.2974L9.84194 21.4481C9.48177 21.7689 9.25 22.2307 9.25 22.75V23.1718L5.16665 22.8005V21.5833C5.16665 20.6183 4.38166 19.8333 3.41665 19.8333H2.25C1.28498 19.8333 0.5 20.6183 0.5 21.5833V26.25C0.5 27.215 1.28498 28 2.25 28H3.41665C4.38166 28 5.16665 27.215 5.16665 26.25V25.0329L9.25 24.6615V25.0833C9.25 26.0483 10.035 26.8333 11 26.8333C11.965 26.8333 12.75 26.0483 12.75 25.0833V24.6615L16.8334 25.0328V26.25C16.8334 27.215 17.6183 28 18.5834 28H19.75C20.715 28 21.5 27.215 21.5 26.25V21.5834C21.5 20.6183 20.715 19.8334 19.75 19.8334H18.5834C17.6183 19.8334 16.8334 20.6183 16.8334 21.5834V22.8005L12.75 23.1718V22.75C12.75 22.2306 12.5181 21.7686 12.1577 21.4478L11.7577 16.2982C11.9932 16.2232 12.1666 16.0106 12.1666 15.7501V12.2501C12.1666 11.9826 11.9834 11.7669 11.7382 11.6979L12.159 5.38453C12.3374 5.22539 12.4837 5.03305 12.5853 4.81354L16.8333 5.19963V6.41676C16.8334 7.38166 17.6183 8.16665 18.5834 8.16665Z" fill="#0F0F10"/>
</svg>
