<svg width="25" height="15" viewBox="0 0 25 15" fill="none" xmlns="http://www.w3.org/2000/svg">
<path d="M24.508 13.6863C24.508 14.8851 23.0213 15.4585 22.2182 14.5624H3.93956C1.76847 14.5624 0.0020752 12.796 0.0020752 10.625C0.0020752 8.45387 1.76847 6.68747 3.93956 6.68747H12.7169C13.908 6.68747 14.877 5.71842 14.877 4.52733C14.877 3.33624 13.908 2.36718 12.7169 2.36718H5.79291C5.52877 2.65867 5.17719 2.80468 4.81456 2.80468C3.65103 2.80468 3.06336 1.3873 3.88542 0.56524C4.42584 0.0236176 5.30379 0.0633204 5.79236 0.617193H12.7169C14.8732 0.617193 16.627 2.37101 16.627 4.52733C16.627 6.68364 14.8732 8.43746 12.7169 8.43746H3.93956C2.73316 8.43746 1.75207 9.41855 1.75207 10.625C1.75207 11.8314 2.73316 12.8124 3.93956 12.8124C23.6279 12.8124 22.1893 12.8381 22.2669 12.7605C23.0868 11.9387 24.5071 12.5159 24.508 13.6863Z" fill="#0F0F10"/>
</svg>
