<svg width="28" height="24" viewBox="0 0 28 24" fill="none" xmlns="http://www.w3.org/2000/svg">
<path d="M23.183 20.3935L24.0044 18.9707L26.505 20.4144C27.3618 18.7291 27.8696 16.8795 27.9908 14.9647H25.0778V13.3217H28C27.8993 11.3905 27.4085 9.5319 26.5659 7.8368L24.0044 9.31566L23.183 7.89286L25.7485 6.41165C25.2219 5.6073 24.6093 4.85092 23.9136 4.15529C23.2425 3.48417 22.5151 2.88983 21.7424 2.37593L20.2503 4.96029L18.8275 4.13883L20.3231 1.54834C18.6254 0.688763 16.7606 0.184818 14.8215 0.0734738V3.06543H13.1785V0.0733643C11.2394 0.184653 9.37459 0.688653 7.67687 1.54818L9.17246 4.13867L7.74966 4.96013L6.25762 2.37582C5.48494 2.88972 4.75754 3.48406 4.08641 4.15518C3.39079 4.85081 2.77813 5.60719 2.25154 6.41154L4.81704 7.89275L3.99558 9.31555L1.43413 7.83669C0.5915 9.5319 0.100734 11.3905 0 13.3216H2.92217V14.9646H0.0091875C0.130375 16.8795 0.638203 18.729 1.49494 20.4144L3.99552 18.9706L4.81698 20.3934L2.32438 21.8325C2.7551 22.4786 3.24188 23.0926 3.7823 23.6677L4.0256 23.9266H23.9742L24.2175 23.6677C24.7579 23.0926 25.2447 22.4786 25.6754 21.8325L23.183 20.3935ZM14.066 19.1346C12.5788 19.1346 11.3688 17.9247 11.3688 16.4375C11.3688 15.2366 12.1579 14.2169 13.2445 13.8686V8.72011H14.8875V13.8686C15.9742 14.217 16.7633 15.2366 16.7633 16.4375C16.7632 17.9247 15.5532 19.1346 14.066 19.1346ZM21.076 14.0688C21.076 10.2035 17.9313 7.05887 14.066 7.05887C10.2007 7.05887 7.056 10.2035 7.056 14.0688H5.41308C5.41308 9.29756 9.29474 5.4159 14.066 5.4159C18.8373 5.4159 22.7189 9.29756 22.7189 14.0688H21.076Z" fill="#0F0F10"/>
</svg>
