<svg width="28" height="26" viewBox="0 0 28 26" fill="none" xmlns="http://www.w3.org/2000/svg">
<path d="M25.8443 2.84886H23.9657V4.51433C23.9657 5.70553 23.0005 6.67007 21.8099 6.67007C20.6187 6.67007 19.6542 5.70553 19.6542 4.51433V2.84886H16.1557V4.51433C16.1557 5.70553 15.1918 6.67007 14 6.67007C12.8082 6.67007 11.8443 5.70553 11.8443 4.51433V2.84886H8.3458V4.51433C8.3458 5.70553 7.38126 6.67007 6.19006 6.67007C4.99947 6.67007 4.03432 5.70553 4.03432 4.51433V2.84886H2.15574C1.58416 2.84886 1.03599 3.07552 0.631324 3.47957C0.227277 3.88423 0 4.43241 0 5.0046V23.4214C0 24.6126 0.965156 25.5772 2.15574 25.5772H25.8443C27.0361 25.5772 28 24.6126 28 23.4214V5.0046C28 3.81402 27.0361 2.84886 25.8443 2.84886ZM23.6885 9.66162V12.7874H19.6209V9.66162H23.6885ZM9.34298 13.7514H13.5177V16.7152H9.34298V13.7514ZM8.37967 16.714H4.3121V13.7501H8.38029L8.37967 16.714ZM13.5183 17.6779V21.2657H9.3436V17.6779H13.5183ZM14.4829 17.6779H18.6564V21.2657H14.4829V17.6779ZM14.4829 16.714V13.7501H18.6564V16.714H14.4829ZM19.6203 13.7514H23.6879V16.7152H19.6203V13.7514ZM18.6576 9.66162V12.7874H14.4829V9.66162H18.6576ZM13.5183 9.66162V12.7874H9.3436V9.66101L13.5183 9.66162ZM8.37967 9.66101V12.7874H4.3121V9.66101H8.37967ZM4.3121 17.6779H8.38029V21.2657H4.3121V17.6779ZM19.6203 21.2657V17.6779H23.6879V21.2657H19.6203ZM4.95821 4.51433V1.65458C4.95821 0.974599 5.51008 0.422729 6.19006 0.422729C6.87066 0.422729 7.42191 0.974599 7.42191 1.65458V4.51433C7.42191 5.19431 6.87066 5.74618 6.19006 5.74618C5.51069 5.74618 4.95821 5.19431 4.95821 4.51433ZM12.7681 4.51433V1.65458C12.7681 0.974599 13.32 0.422729 14 0.422729C14.68 0.422729 15.2319 0.974599 15.2319 1.65458V4.51433C15.2319 5.19431 14.68 5.74618 14 5.74618C13.32 5.74618 12.7681 5.19431 12.7681 4.51433ZM20.5787 4.51433V1.65458C20.5787 0.974599 21.1306 0.422729 21.8106 0.422729C22.4905 0.422729 23.0424 0.974599 23.0424 1.65458V4.51433C23.0424 5.19431 22.4905 5.74618 21.8106 5.74618C21.1293 5.74618 20.5787 5.19431 20.5787 4.51433Z" fill="#0F0F10"/>
</svg>
