<svg width="98" height="98" viewBox="0 0 98 98" fill="none" xmlns="http://www.w3.org/2000/svg">
<path d="M49 0C21.9803 0 0 21.9803 0 49C0 76.0197 21.9803 98 49 98C76.0197 98 98 76.0197 98 49C98 21.9803 76.0197 0 49 0ZM73.835 38.6162L47.293 65.1574C46.4968 65.9537 45.4515 66.3544 44.4062 66.3544C43.361 66.3544 42.3157 65.9537 41.5195 65.1574L28.2489 51.8868C26.6518 50.2905 26.6518 47.7095 28.2489 46.1132C29.8452 44.5162 32.4254 44.5162 34.0225 46.1132L44.4062 56.497L68.0614 32.8426C69.6577 31.2456 72.2379 31.2456 73.835 32.8426C75.4313 34.4389 75.4313 37.0192 73.835 38.6162Z" fill="#18DE6E"/>
</svg>
